<svg width="30" height="30" viewBox="0 0 30 30" fill="none" xmlns="http://www.w3.org/2000/svg">
<path d="M18.9961 3.0388C19.4881 3.1468 19.8931 3.4078 20.2141 3.8248C20.5351 4.2418 20.7151 4.7578 20.7571 5.3788C20.7571 5.5708 20.7691 5.8708 20.7901 6.2758C20.8111 6.6808 20.8231 7.1098 20.8231 7.5568C20.8231 8.0038 20.8081 8.4118 20.7751 8.7748C20.7421 9.1378 20.6851 9.3628 20.5981 9.4468C20.4691 9.5968 20.3461 9.6658 20.2291 9.6538C20.1121 9.6418 20.0521 9.7018 20.0521 9.8308C20.0521 9.8938 20.0371 10.1188 20.0041 10.5028C19.9711 10.8868 19.8811 11.4208 19.7311 12.1048C19.6471 12.4678 19.5241 12.7918 19.3621 13.0828C19.2031 13.3708 19.0351 13.6318 18.8671 13.8688C18.6541 14.1238 18.4411 14.3608 18.2251 14.5738C18.2041 14.8498 18.1921 15.1168 18.1921 15.3748V16.0468C18.1921 16.2808 18.2041 16.4638 18.2251 16.5898C18.2461 16.8448 18.3091 17.0278 18.4171 17.1328C18.5251 17.2408 18.7381 17.3368 19.0561 17.4208C19.1641 17.4628 19.3561 17.5288 19.6321 17.6128C19.9081 17.6968 20.2411 17.8108 20.6251 17.9488C21.0091 18.0868 21.4111 18.2308 21.8251 18.3808C22.2421 18.5308 22.6411 18.6748 23.0251 18.8128C23.4091 18.9508 23.7511 19.0798 24.0511 19.1968C24.3511 19.3138 24.5731 19.4038 24.7231 19.4698C25.1491 19.6828 25.4341 19.9078 25.5721 20.1418C25.7101 20.3758 25.8331 20.6758 25.9411 21.0388C25.9831 21.2308 26.0431 21.5818 26.1181 22.0948C26.1931 22.6078 26.2741 23.1418 26.3581 23.6968C26.4421 24.2518 26.5141 24.7738 26.5651 25.2658C26.6191 25.7578 26.6551 26.0668 26.6761 26.1958C26.6971 26.4748 26.6491 26.7088 26.5321 26.9008C26.4151 27.0928 26.1421 27.2428 25.7161 27.3478C25.3531 27.4318 24.8251 27.5248 24.1321 27.6208C23.4391 27.7168 22.6321 27.8068 21.7141 27.8938C20.7961 27.9778 19.7881 28.0498 18.6871 28.1008C17.5891 28.1548 16.4281 28.1818 15.2131 28.1818C13.9951 28.1818 12.8341 28.1608 11.7241 28.1188C10.6141 28.0768 9.59414 28.0168 8.66714 27.9418C7.73714 27.8668 6.91814 27.7828 6.20114 27.6868C5.48713 27.5908 4.92614 27.4888 4.52114 27.3838C4.43714 27.3628 4.32914 27.3208 4.20014 27.2548C4.07114 27.1918 3.94814 27.1108 3.83114 27.0148C3.71414 26.9188 3.62414 26.8018 3.55814 26.6638C3.49514 26.5258 3.47114 26.3698 3.49514 26.1988C3.51614 26.0488 3.57614 25.7128 3.67214 25.1908C3.76814 24.6688 3.87914 24.1078 4.00814 23.5108C4.13714 22.9138 4.25414 22.3528 4.35914 21.8308C4.46714 21.3088 4.53914 20.9818 4.58414 20.8528C4.66814 20.5978 4.79114 20.3308 4.95314 20.0518C5.11214 19.7728 5.38514 19.4848 5.76914 19.1878C5.96114 19.0378 6.31214 18.8788 6.82514 18.7078C7.33814 18.5368 7.87214 18.3778 8.42714 18.2278C8.98214 18.0778 9.50414 17.9518 9.99614 17.8438C10.4881 17.7358 10.8061 17.6608 10.9561 17.6188C11.2771 17.5558 11.5591 17.4748 11.8051 17.3788C12.0511 17.2828 12.1741 17.1478 12.1741 16.9798V15.1228C11.9401 14.9308 11.7151 14.7178 11.5021 14.4838C11.3101 14.2918 11.1181 14.0608 10.9261 13.7968C10.7341 13.5298 10.5631 13.2478 10.4131 12.9478C10.1131 12.3718 9.92113 11.8438 9.83714 11.3638C9.75314 10.8838 9.69914 10.6018 9.67814 10.5148C9.65714 10.4308 9.57614 10.3588 9.43814 10.3078C9.30014 10.2538 9.19814 10.1428 9.13514 9.9718C8.96414 9.6088 8.88314 9.2248 8.89514 8.8198C8.90714 8.4148 8.93114 7.8388 8.97614 7.0918C9.03914 6.3448 9.16214 5.6308 9.34514 4.9468C9.52814 4.2628 9.92714 3.6328 10.5451 3.0568C10.8661 2.7808 11.2921 2.5498 11.8261 2.3698C12.3601 2.1898 12.9031 2.0548 13.4581 1.9708C14.0131 1.8868 14.5411 1.8418 15.0421 1.8418C15.5431 1.8418 15.9241 1.8748 16.1791 1.9378C16.4581 2.0218 16.6801 2.1148 16.8511 2.2108C17.0221 2.3068 17.1541 2.3968 17.2501 2.4838C17.3461 2.5708 17.4271 2.6488 17.4901 2.7238C17.5531 2.7988 17.6191 2.8558 17.6821 2.9008C17.7901 2.9848 17.9281 3.0118 18.0991 2.9818C18.2731 2.9278 18.5701 2.9548 18.9961 3.0388ZM16.0531 20.5888L16.9171 23.9188L18.3271 20.1388L16.9831 19.1788L16.0531 20.5888ZM13.7461 19.1158L12.4651 20.1418L13.9051 23.9218L14.6731 20.5588L13.7461 19.1158ZM25.1461 6.5938C25.4461 6.6358 25.6861 6.7858 25.8661 7.0408C26.0491 7.2958 26.1481 7.6078 26.1691 7.9708C26.1691 8.0788 26.1811 8.2528 26.2021 8.4988C26.2231 8.7448 26.2351 8.9938 26.2351 9.2518C26.2351 9.5068 26.2231 9.7468 26.2021 9.9718C26.1811 10.1968 26.1481 10.3288 26.1061 10.3708C26.0221 10.4548 25.9411 10.4938 25.8661 10.4818C25.7911 10.4698 25.7551 10.5088 25.7551 10.5928C25.7551 10.6348 25.7491 10.7698 25.7401 10.9918C25.7281 11.2168 25.6711 11.5408 25.5631 11.9698C25.5211 12.1828 25.4551 12.3748 25.3711 12.5458C25.2841 12.7168 25.1881 12.8668 25.0831 12.9928C24.9751 13.1428 24.8491 13.2808 24.6991 13.4098C24.6781 13.5808 24.6661 13.7398 24.6661 13.8898V14.6248C24.6871 14.7748 24.7291 14.8798 24.7951 14.9458C24.8581 15.0088 24.9871 15.0628 25.1791 15.1048C25.2631 15.1258 25.4671 15.1888 25.7881 15.2968C26.1091 15.4048 26.4541 15.5278 26.8291 15.6658C27.2011 15.8038 27.5491 15.9328 27.8701 16.0498C28.1911 16.1668 28.4161 16.2568 28.5421 16.3228C28.7971 16.4518 28.9741 16.5838 29.0701 16.7218C29.1661 16.8598 29.2351 17.0488 29.2771 17.2828C29.2981 17.3908 29.3311 17.5918 29.3731 17.8918C29.4151 18.1918 29.4571 18.5098 29.5021 18.8518C29.5441 19.1938 29.5861 19.5028 29.6311 19.7818C29.6731 20.0608 29.6941 20.2408 29.6941 20.3248C29.7151 20.4958 29.6881 20.6398 29.6131 20.7568C29.5381 20.8738 29.3731 20.9548 29.1181 20.9968C28.9051 21.0388 28.6261 21.0928 28.2841 21.1558C27.9421 21.2188 27.4951 21.2728 26.9401 21.3148C26.8981 21.0598 26.8321 20.8138 26.7481 20.5768C26.6851 20.3638 26.6101 20.1388 26.5231 19.9048C26.4391 19.6708 26.3311 19.4668 26.2021 19.2958C25.9681 18.9748 25.7221 18.7198 25.4671 18.5278C25.2121 18.3358 24.9541 18.1768 24.6991 18.0478C24.4441 17.9188 24.1861 17.8168 23.9311 17.7448C23.6761 17.6698 23.4181 17.5888 23.1631 17.5048C22.0741 17.1208 21.1981 16.8538 20.5381 16.7038C19.8751 16.5538 19.5031 16.4248 19.4161 16.3198C19.3741 16.2568 19.3471 16.1818 19.3351 16.0948C19.3231 16.0108 19.3201 15.9148 19.3201 15.8068C19.3201 15.6988 19.3321 15.5818 19.3531 15.4558C19.6531 15.3688 19.8751 15.3178 20.0251 15.2968C20.1751 15.2758 20.2921 15.2548 20.3761 15.2338C20.5471 15.1918 20.7061 15.1438 20.8561 15.0898C21.0061 15.0358 21.0811 14.9578 21.0811 14.8498V13.7278L21.0181 13.6948L20.8891 13.6318C20.8471 13.6108 20.8051 13.5568 20.7601 13.4728C20.8891 13.1968 21.0151 12.8638 21.1441 12.4798C21.2521 12.1378 21.3631 11.7208 21.4801 11.2318C21.5971 10.7398 21.6991 10.1548 21.7831 9.4708C21.8461 8.9368 21.8911 8.4568 21.9121 8.0308C21.9331 7.6048 21.9451 7.2298 21.9451 6.9088V5.9158C22.2001 5.8738 22.4731 5.8528 22.7611 5.8528C23.0491 5.8528 23.2801 5.8738 23.4481 5.9158C23.8111 6.0238 24.0301 6.1288 24.1051 6.2368C24.1801 6.3448 24.2611 6.4288 24.3451 6.4918C24.4291 6.5338 24.5221 6.5518 24.6181 6.5398C24.7141 6.5338 24.8911 6.5518 25.1461 6.5938ZM23.5141 16.8418L23.7391 17.7058L24.3151 17.8978L24.7621 16.7458L24.0901 16.1698L23.5141 16.8418ZM21.8461 16.2658L21.3031 16.8088L21.3361 16.9378L22.3291 17.2258L22.4581 16.8748L21.8461 16.2658ZM7.62914 5.8888C7.28714 5.8468 6.94514 5.8348 6.60314 5.8558C6.30314 5.8768 5.97914 5.9308 5.62514 6.0148C5.27414 6.0988 4.94713 6.2488 4.64714 6.4618C4.39214 6.6328 4.18814 6.8338 4.03814 7.0708C3.88814 7.3048 3.77714 7.5448 3.70214 7.7908C3.62714 8.0368 3.57914 8.2648 3.55814 8.4778C3.53714 8.6908 3.52514 8.8618 3.52514 8.9908C3.50414 9.2698 3.48314 9.5188 3.46214 9.7438C3.44114 9.9688 3.45014 10.1668 3.49514 10.3348C3.53714 10.5058 3.57014 10.6228 3.59114 10.6858C3.61214 10.7488 3.65414 10.8028 3.72014 10.8448C3.78314 10.8868 3.83714 10.9138 3.87914 10.9258C3.92114 10.9378 3.96314 11.0818 4.00814 11.3578C4.02914 11.6368 4.09814 11.9068 4.21514 12.1738C4.33214 12.4408 4.45514 12.6598 4.58414 12.8308C4.64714 12.9388 4.72814 13.0378 4.82414 13.1338C4.92014 13.2298 5.01014 13.3318 5.09714 13.4368C5.18114 13.5448 5.28914 13.6498 5.41814 13.7578V14.1418V14.6878C5.39714 14.8168 5.34914 14.9218 5.27414 15.0088C5.19914 15.0928 5.05514 15.1588 4.84213 15.2008C4.73414 15.2218 4.56014 15.2638 4.31414 15.3298C4.06814 15.3928 3.80114 15.4618 3.51314 15.5368C3.22514 15.6118 2.93714 15.6928 2.64914 15.7768C2.36114 15.8608 2.13014 15.9358 1.96214 16.0018C1.34414 16.3018 0.969135 16.8118 0.840135 17.5378C0.756135 17.8798 0.657135 18.3058 0.552135 18.8188C0.444135 19.3318 0.372135 19.6948 0.327135 19.9078C0.285135 20.1208 0.291135 20.3458 0.342135 20.5798C0.396135 20.8138 0.573135 20.9638 0.870135 21.0268C1.02014 21.0688 1.20614 21.1018 1.43114 21.1228C1.65614 21.1438 1.87514 21.1768 2.08814 21.2188C2.32214 21.2608 2.56814 21.2938 2.82314 21.3148C2.86514 21.0598 2.93114 20.8018 3.01514 20.5468C3.07814 20.3128 3.17114 20.0758 3.28814 19.8418C3.40514 19.6078 3.54914 19.3828 3.72014 19.1698C3.89114 18.9778 4.09814 18.7918 4.34414 18.6088C4.59014 18.4258 4.83014 18.2518 5.06414 18.0808C5.31914 17.8888 5.59814 17.7088 5.89814 17.5378L5.58014 16.7458L6.28514 16.2028L7.02314 17.0368L7.40714 16.9408C7.44913 16.9408 7.51514 16.9198 7.59914 16.8778C7.64114 16.8568 7.68314 16.8448 7.72814 16.8448L8.33714 16.1398L8.88014 16.5868C8.98814 16.5658 9.08414 16.5448 9.16814 16.5238C9.25214 16.5028 9.34814 16.4818 9.45614 16.4608L9.77714 16.3978C10.0111 16.3558 10.2091 16.3138 10.3681 16.2688C10.5271 16.2268 10.6201 16.1188 10.6411 15.9478C10.6411 15.8638 10.6471 15.7918 10.6561 15.7408C10.6681 15.6868 10.6711 15.6388 10.6711 15.5968V15.5008C10.4791 15.4378 10.2991 15.3718 10.1281 15.3088L9.68114 15.1798C9.53114 15.1378 9.41414 15.0958 9.33014 15.0508C9.15914 14.9878 9.06314 14.8948 9.04214 14.7778C9.02114 14.6608 9.00914 14.5048 9.00914 14.3128V13.9918C9.00914 13.8838 9.02114 13.7788 9.04214 13.6708C9.04214 13.5628 9.05414 13.4368 9.07514 13.2868C8.90414 13.0318 8.73314 12.7528 8.56214 12.4528C8.41214 12.1978 8.26814 11.9038 8.13014 11.5708C7.99214 11.2408 7.87813 10.8928 7.79413 10.5298C7.68613 10.0378 7.61414 9.5158 7.56914 8.9608C7.52714 8.4058 7.51514 7.9048 7.53614 7.4548C7.53313 6.9238 7.56614 6.4018 7.62914 5.8888Z" fill="#FF5722"/>
</svg>
