<svg width="30" height="30" viewBox="0 0 30 30" fill="none" xmlns="http://www.w3.org/2000/svg">
<path d="M3.51572 2.9579C3.48994 2.96259 3.46416 2.96962 3.44189 2.97665C3.21807 3.01532 3.03877 3.17821 2.97666 3.39501C2.91338 3.61298 2.979 3.84618 3.14424 3.9997L25.7626 26.6181C26.0005 26.8559 26.3813 26.8559 26.6181 26.6181C26.856 26.3813 26.856 26.0005 26.6181 25.7626L21.5778 20.7224C25.4907 18.6106 28.2528 15.4688 28.4228 15.272C28.6138 15.0481 28.6138 14.7141 28.4228 14.4903C28.1649 14.1903 22.029 7.14266 14.8806 7.14266C12.9118 7.14266 11.0333 7.6829 9.31885 8.46337L3.99971 3.14423C3.87666 3.01063 3.69736 2.94384 3.51572 2.9579ZM14.8806 8.33329C15.1138 8.33329 15.3388 8.35438 15.5696 8.37079C18.8544 8.71884 21.429 11.5044 21.429 14.8806C21.429 16.4696 20.8665 17.9321 19.922 19.0665L16.9267 16.0712C17.1341 15.7208 17.2618 15.3177 17.2618 14.8806C17.2618 13.5645 16.1966 12.5005 14.8806 12.5005C14.4435 12.5005 14.0415 12.6282 13.6911 12.8345L10.6958 9.84032C11.8302 8.89579 13.2927 8.33329 14.8806 8.33329ZM7.14268 9.61649C3.77822 11.6813 1.49541 14.3087 1.33955 14.4903C1.14854 14.7141 1.14854 15.0481 1.33955 15.272C1.59736 15.572 7.7333 22.6196 14.8806 22.6196C15.1208 22.6196 15.3528 22.6032 15.5884 22.5821C16.8739 22.4977 18.129 22.2165 19.3079 21.7817L18.0985 20.5735C17.1458 21.1149 16.0548 21.429 14.8806 21.429C14.6485 21.429 14.4235 21.4079 14.1927 21.3915C10.9079 21.0423 8.3333 18.2567 8.3333 14.8806C8.3333 13.7063 8.64736 12.6165 9.18877 11.6626L7.14268 9.61649ZM12.5192 14.9743C12.5673 16.2106 13.5493 17.195 14.788 17.2431L12.5192 14.9743Z" fill="#FF5722"/>
</svg>
