<svg width="30" height="30" viewBox="0 0 30 30" fill="none" xmlns="http://www.w3.org/2000/svg">
<path d="M12.5 3.75C11.8115 3.75 11.25 4.31152 11.25 5V10C11.25 10.6885 11.8115 11.25 12.5 11.25H13.75V13.75H7.5C6.81152 13.75 6.25 14.3115 6.25 15V18.75H5C4.31152 18.75 3.75 19.3115 3.75 20V25C3.75 25.6885 4.31152 26.25 5 26.25H10C10.6885 26.25 11.25 25.6885 11.25 25V20C11.25 19.3115 10.6885 18.75 10 18.75H8.75V16.25H14.79C14.9268 16.2744 15.0635 16.2744 15.1953 16.25H21.25V18.75H20C19.3115 18.75 18.75 19.3115 18.75 20V25C18.75 25.6885 19.3115 26.25 20 26.25H25C25.6885 26.25 26.25 25.6885 26.25 25V20C26.25 19.3115 25.6885 18.75 25 18.75H23.75V15C23.75 14.3115 23.1885 13.75 22.5 13.75H16.25V11.25H17.5C18.1885 11.25 18.75 10.6885 18.75 10V5C18.75 4.31152 18.1885 3.75 17.5 3.75H12.5Z" fill="#FF5722"/>
</svg>
