<svg width="30" height="30" viewBox="0 0 30 30" fill="none" xmlns="http://www.w3.org/2000/svg">
<path d="M14.1346 0.213867L0 5.78703V21.0575L17.0463 29.4386L29.5448 21.0575V5.78703L14.1346 0.213867ZM14.1684 2.66354L26.9171 7.24512L23.8995 8.84292L11.0787 3.87147L14.1684 2.66354ZM7.98903 5.11321L21.2357 10.2627L17.7201 12.1084L3.9055 6.71101L7.98903 5.11321ZM2.34375 7.31498L17.0463 13.0684V26.705L16.8682 26.8109L2.27163 19.6377V7.35104L2.34375 7.31498ZM7.38732 12.1084L5.7174 14.2764L6.81716 14.6302V17.7559L7.95523 18.1819V15.0201L9.09105 15.3761L7.38732 12.1084ZM11.9328 13.6724L10.2269 15.8742L11.3627 16.264V19.7076L12.5008 20.1357V16.6539L13.6005 17.01L11.9328 13.6724ZM5.68134 18.2179V19.6016L13.6366 23.3652V21.9454L5.68134 18.2179Z" fill="#FF5722"/>
</svg>
