<svg width="30" height="30" viewBox="0 0 30 30" fill="none" xmlns="http://www.w3.org/2000/svg">
<path d="M6.9082 1.97461C5.81641 1.97461 4.93359 2.85547 4.93359 3.94727V25.6582C4.93359 26.748 5.81641 27.6309 6.9082 27.6309H19.3047C19.3008 27.666 19.2969 27.6973 19.2891 27.7324C18.877 27.9355 18.6582 28.3984 18.7656 28.8457C18.873 29.2969 19.2734 29.6094 19.7363 29.6055H20.0645C20.1719 29.625 20.2813 29.625 20.3848 29.6055H27.959C28.0664 29.625 28.1758 29.625 28.2793 29.6055H28.6191C29.0801 29.6133 29.4863 29.2969 29.5938 28.8457C29.7012 28.3945 29.4824 27.9316 29.0664 27.7285C28.8535 25.8281 27.9824 24.6445 27.1836 23.6836C27.9824 22.7246 28.8535 21.541 29.0664 19.6367C29.4785 19.4316 29.6973 18.9688 29.5898 18.5234C29.4824 18.0723 29.0801 17.7598 28.6191 17.7637H28.2793C28.2207 17.7559 28.168 17.748 28.1094 17.748C28.0625 17.752 28.0137 17.7559 27.9668 17.7637H24.6719V3.94727C24.6719 2.85547 23.7891 1.97461 22.6973 1.97461H6.9082ZM9.86914 7.89453C10.4121 7.89453 10.8555 8.33789 10.8555 8.88086C10.8555 9.42578 10.4121 9.86914 9.86914 9.86914C9.32422 9.86914 8.88086 9.42578 8.88086 8.88086C8.88086 8.33789 9.32422 7.89453 9.86914 7.89453ZM13.8164 7.89453H19.7363C20.2813 7.89453 20.7246 8.33789 20.7246 8.88086C20.7246 9.42578 20.2813 9.86914 19.7363 9.86914H13.8164C13.2715 9.86914 12.8281 9.42578 12.8281 8.88086C12.8281 8.33789 13.2715 7.89453 13.8164 7.89453ZM9.86914 11.8418C10.4121 11.8418 10.8555 12.2852 10.8555 12.8281C10.8555 13.373 10.4121 13.8164 9.86914 13.8164C9.32422 13.8164 8.88086 13.373 8.88086 12.8281C8.88086 12.2852 9.32422 11.8418 9.86914 11.8418ZM13.8164 11.8418H19.7363C20.2813 11.8418 20.7246 12.2852 20.7246 12.8281C20.7246 13.373 20.2813 13.8164 19.7363 13.8164H13.8164C13.2715 13.8164 12.8281 13.373 12.8281 12.8281C12.8281 12.2852 13.2715 11.8418 13.8164 11.8418ZM9.86914 15.7891C10.4121 15.7891 10.8555 16.2324 10.8555 16.7754C10.8555 17.3203 10.4121 17.7637 9.86914 17.7637C9.32422 17.7637 8.88086 17.3203 8.88086 16.7754C8.88086 16.2324 9.32422 15.7891 9.86914 15.7891ZM13.8164 15.7891H19.7363C20.2813 15.7891 20.7246 16.2324 20.7246 16.7754C20.7246 17.3203 20.2813 17.7637 19.7363 17.7637H13.8164C13.2715 17.7637 12.8281 17.3203 12.8281 16.7754C12.8281 16.2324 13.2715 15.7891 13.8164 15.7891ZM9.86914 19.7363C10.4121 19.7363 10.8555 20.1797 10.8555 20.7246C10.8555 21.2676 10.4121 21.7109 9.86914 21.7109C9.32422 21.7109 8.88086 21.2676 8.88086 20.7246C8.88086 20.1797 9.32422 19.7363 9.86914 19.7363ZM13.8164 19.7363H19.3047C19.4023 20.4883 19.5938 21.1328 19.8477 21.6875C19.8105 21.6914 19.7754 21.7109 19.7363 21.7109H13.8164C13.2715 21.7109 12.8281 21.2676 12.8281 20.7246C12.8281 20.1797 13.2715 19.7363 13.8164 19.7363ZM21.291 19.7363H27.0645C26.8457 21.2949 26.0977 22.0195 25.2188 23.041L24.6641 23.6836L25.2188 24.3281C26.0977 25.3496 26.8457 26.0742 27.0645 27.6309H26.3594C25.7012 26.7871 24.8145 26.082 24.1777 26.082C23.541 26.082 22.6543 26.7871 21.9961 27.6309H21.291C21.5098 26.0742 22.2578 25.3496 23.1367 24.3281L23.6914 23.6836L23.1367 23.041C22.2578 22.0195 21.5098 21.2949 21.291 19.7363Z" fill="#FF5722"/>
</svg>
