<svg width="30" height="30" viewBox="0 0 30 30" fill="none" xmlns="http://www.w3.org/2000/svg">
<path d="M4.93359 3.94727C3.84375 3.94727 2.96094 4.83008 2.96094 5.92188V7.89453H26.6445V5.92188C26.6445 4.83008 25.7617 3.94727 24.6719 3.94727H4.93359ZM3.94727 9.86914V23.6836C3.94727 24.7754 4.83008 25.6582 5.92188 25.6582H23.6836C24.7754 25.6582 25.6582 24.7754 25.6582 23.6836V9.86914H3.94727ZM11.8418 12.8281H17.7637C18.3066 12.8281 18.75 13.2715 18.75 13.8164C18.75 14.3594 18.3066 14.8027 17.7637 14.8027H11.8418C11.2988 14.8027 10.8555 14.3594 10.8555 13.8164C10.8555 13.2715 11.2988 12.8281 11.8418 12.8281Z" fill="#FF5722"/>
</svg>
