<svg width="30" height="30" viewBox="0 0 30 30" fill="none" xmlns="http://www.w3.org/2000/svg">
<path d="M13.75 2.5V3.75H2.5V6.25H3.75V18.75C3.75 20.1318 4.86816 21.25 6.25 21.25H12.002L10 26.25H12.5L14.4971 21.25H15.5029L17.5 26.25H20L18.0029 21.25H23.75C25.1318 21.25 26.25 20.1318 26.25 18.75V6.25H27.5V3.75H16.25V2.5H13.75ZM21.6162 9.11621L23.3838 10.8838L17.5 16.7676L13.75 13.0176L10 16.7676L6.61621 13.3838L8.38379 11.6162L10 13.2324L13.75 9.48242L17.5 13.2324L21.6162 9.11621Z" fill="#FF5722"/>
</svg>
