<svg width="15" height="18" viewBox="0 0 15 18" fill="none" xmlns="http://www.w3.org/2000/svg">
<path d="M2.25 0.75C1.4209 0.75 0.75 1.4209 0.75 2.25V15.75C0.75 16.5791 1.4209 17.25 2.25 17.25H9.75C10.5791 17.25 11.25 16.5791 11.25 15.75V14.25L9.75 12.75V14.25H2.25V3.75H9.75V5.25L11.25 3.75V2.25C11.25 1.4209 10.5791 0.75 9.75 0.75H2.25ZM12.4922 4.75781L11.4316 5.81836C13.1865 7.57324 13.1865 10.4268 11.4316 12.1816L12.4922 13.2422C14.8301 10.9043 14.8301 7.0957 12.4922 4.75781ZM10.3711 6.87891L9.31055 7.93945C9.59473 8.22363 9.75 8.59863 9.75 9C9.75 9.40137 9.59473 9.77637 9.31055 10.0605L10.3711 11.1211C10.9395 10.5557 11.25 9.7998 11.25 9C11.25 8.2002 10.9395 7.44434 10.3711 6.87891Z" fill="#FF5722"/>
</svg>
